<svg width="306" height="313" viewBox="0 0 306 313" fill="none" xmlns="http://www.w3.org/2000/svg">
<path d="M32.9894 79.6275C16.8199 95.7971 17.6017 137.269 20.0138 155.984C28.7738 148.498 30.2182 118.055 50.6796 97.5937C71.1411 77.1322 127.036 73.1397 144.779 73.1397C162.522 73.1397 213.872 76.6332 234.334 92.104C250.703 104.481 278.335 140.18 285.322 161.473C297.299 127.537 271.54 87.6125 255.071 73.1397C238.602 58.667 205.664 45.1924 144.779 45.1924C83.8934 45.1924 53.2013 59.4156 32.9894 79.6275Z" fill="#FFDB39"/>
<path fill-rule="evenodd" clip-rule="evenodd" d="M0.556529 209.146C0.556529 170.007 32.2846 138.279 71.4231 138.279H234.316C273.454 138.279 305.182 170.007 305.182 209.146C305.182 210.606 305.138 212.055 305.051 213.493C305.156 216.257 305.234 219.169 305.234 221.673C305.234 223.546 305.205 225.223 305.149 226.719C305.171 227.304 305.182 227.89 305.182 228.478C305.182 274.71 237.057 312.189 153.02 312.189C73.3261 312.189 7.94167 278.484 1.39639 235.572C1.38225 235.537 1.36903 235.499 1.35677 235.459C0.670564 233.213 0.233887 228.909 0.233887 221.673C0.233887 218.099 0.392317 213.693 0.562501 210.075C0.558524 209.766 0.556529 209.456 0.556529 209.146Z" fill="#FF9900"/>
<path d="M39.1012 99.6924C86.7555 39.4798 217.765 47.7903 262.68 99.6924C307.596 151.595 276.654 218.968 276.654 218.968L19.1388 211.897C19.1388 211.897 13.9516 131.47 39.1012 99.6924Z" fill="#FF9900"/>
<mask id="mask0_608_1093" style="mask-type:alpha" maskUnits="userSpaceOnUse" x="0" y="138" width="306" height="175">
<path fill-rule="evenodd" clip-rule="evenodd" d="M0.556529 209.146C0.556529 170.007 32.2846 138.279 71.4231 138.279H234.316C273.454 138.279 305.182 170.007 305.182 209.146C305.182 210.606 305.138 212.055 305.051 213.493C305.156 216.257 305.234 219.169 305.234 221.673C305.234 223.546 305.205 225.223 305.149 226.719C305.171 227.304 305.182 227.89 305.182 228.478C305.182 274.71 237.057 312.189 153.02 312.189C73.3261 312.189 7.94167 278.484 1.39639 235.572C1.38225 235.537 1.36903 235.499 1.35677 235.459C0.670564 233.213 0.233887 228.909 0.233887 221.673C0.233887 218.099 0.392317 213.693 0.562501 210.075C0.558524 209.766 0.556529 209.456 0.556529 209.146Z" fill="#D9D9D9"/>
</mask>
<g mask="url(#mask0_608_1093)">
<path d="M263.646 268.772C233.303 293.525 100.62 300.379 38.0709 300.712V306.7L70.0109 337.642L320.539 323.668V198.903C314.218 211.879 293.989 244.018 263.646 268.772Z" fill="#FF8400"/>
</g>
<path d="M32.9894 84.1187C16.8199 100.288 17.6017 141.76 20.0138 160.475C28.7738 152.989 30.2182 122.546 50.6796 102.085C71.1411 81.6234 127.036 77.631 144.779 77.631C162.522 77.631 213.872 81.1244 234.334 96.5952C250.703 108.972 278.335 144.671 285.322 165.965C297.299 132.028 271.54 92.1037 255.071 77.631C238.602 63.1582 205.664 49.6836 144.779 49.6836C83.8934 49.6836 53.2013 63.9068 32.9894 84.1187Z" fill="#FFC800"/>
<rect x="136.569" y="22.3643" width="9.33722" height="38.5409" transform="rotate(26.2819 136.569 22.3643)" fill="#FFC800"/>
<circle cx="143.922" cy="18.0188" r="12.9132" transform="rotate(26.2819 143.922 18.0188)" fill="#FFC800"/>
<ellipse cx="138.976" cy="13.5225" rx="3.11913" ry="3.11913" transform="rotate(26.2819 138.976 13.5225)" fill="white"/>
<path d="M163.812 26.8174L171.961 22.2605L186.181 47.6908L177.525 49.9346L163.812 26.8174Z" fill="#FFDB39"/>
<circle cx="164.396" cy="18.296" r="12.9132" transform="rotate(-29.2114 164.396 18.296)" fill="#FFDB39"/>
<ellipse cx="164.697" cy="12.4434" rx="3.11913" ry="3.11913" transform="rotate(-29.2114 164.697 12.4434)" fill="white"/>
</svg>
